<svg xmlns="http://www.w3.org/2000/svg" viewBox="0 0 920 420" role="img" aria-label="Ilustração de finanças">
  <defs>
    <linearGradient id="g1" x1="0" y1="0" x2="1" y2="1">
      <stop offset="0" stop-color="#2563eb" stop-opacity="0.92"/>
      <stop offset="1" stop-color="#7c3aed" stop-opacity="0.92"/>
    </linearGradient>
    <linearGradient id="g2" x1="0" y1="1" x2="1" y2="0">
      <stop offset="0" stop-color="#22c55e" stop-opacity="0.95"/>
      <stop offset="1" stop-color="#0ea5e9" stop-opacity="0.95"/>
    </linearGradient>
    <filter id="soft" x="-20%" y="-20%" width="140%" height="140%">
      <feGaussianBlur in="SourceGraphic" stdDeviation="14"/>
    </filter>
  </defs>

  <rect x="0" y="0" width="920" height="420" rx="40" fill="#0b1224"/>

  <circle cx="140" cy="120" r="110" fill="url(#g1)" filter="url(#soft)" opacity="0.75"/>
  <circle cx="770" cy="110" r="120" fill="url(#g2)" filter="url(#soft)" opacity="0.65"/>
  <circle cx="700" cy="330" r="140" fill="url(#g1)" filter="url(#soft)" opacity="0.45"/>

  <g fill="none" stroke="#e2e8f0" stroke-opacity="0.9" stroke-linecap="round" stroke-linejoin="round">
    <path d="M170 290c62-22 94-95 156-115 64-20 102 48 154 30 52-18 70-86 128-92 56-6 84 50 132 28" stroke-width="10"/>
    <path d="M170 290l0 60" stroke-width="10" opacity="0.45"/>
    <path d="M790 141l0 209" stroke-width="10" opacity="0.35"/>
  </g>

  <g transform="translate(96 88)">
    <rect x="0" y="0" width="330" height="214" rx="28" fill="#111c34" stroke="#334155" stroke-opacity="0.55"/>
    <rect x="26" y="28" width="120" height="16" rx="8" fill="#94a3b8" opacity="0.55"/>
    <rect x="26" y="58" width="190" height="12" rx="6" fill="#64748b" opacity="0.55"/>

    <g transform="translate(26 104)">
      <rect x="0" y="58" width="42" height="54" rx="14" fill="#22c55e" opacity="0.85"/>
      <rect x="54" y="22" width="42" height="90" rx="14" fill="#60a5fa" opacity="0.85"/>
      <rect x="108" y="40" width="42" height="72" rx="14" fill="#a855f7" opacity="0.85"/>
      <rect x="162" y="0" width="42" height="112" rx="14" fill="#f59e0b" opacity="0.85"/>
      <rect x="216" y="34" width="42" height="78" rx="14" fill="#ef4444" opacity="0.85"/>
    </g>
  </g>

  <g transform="translate(504 170)">
    <rect x="0" y="0" width="320" height="132" rx="28" fill="#111c34" stroke="#334155" stroke-opacity="0.55"/>
    <g transform="translate(22 22)">
      <rect x="0" y="0" width="120" height="18" rx="9" fill="#94a3b8" opacity="0.55"/>
      <rect x="0" y="34" width="260" height="10" rx="5" fill="#64748b" opacity="0.6"/>
      <rect x="0" y="58" width="230" height="10" rx="5" fill="#64748b" opacity="0.5"/>
      <rect x="0" y="82" width="200" height="10" rx="5" fill="#64748b" opacity="0.4"/>
    </g>
  </g>
</svg>
